<svg width="51" height="36" viewBox="0 0 51 36" fill="none" xmlns="http://www.w3.org/2000/svg">
<path fill-rule="evenodd" clip-rule="evenodd" d="M1.3281 11.1117C0.00754594 14.4008 -0.337973 18.0199 0.33529 21.5117C1.00847 25.0033 2.67021 28.2106 5.11022 30.7279C7.55024 33.2452 10.6591 34.9596 14.0435 35.6541C17.4281 36.3487 20.9361 35.9921 24.1243 34.6298C27.3123 33.2675 30.0372 30.9603 31.9543 28.0003C32.0054 27.9213 32.0559 27.842 32.1058 27.7623C32.141 27.7061 32.1759 27.6495 32.2106 27.5928V36H33.5526C37.0034 36 40.3767 34.9443 43.2458 32.9663C46.1151 30.9887 48.3513 28.1773 49.6718 24.8882C50.9925 21.5992 51.338 17.9801 50.6647 14.4883C49.9915 10.9967 48.3299 7.7894 45.8898 5.2721C43.4497 2.75471 40.3409 1.04042 36.9565 0.34591C33.5719 -0.348679 30.0639 0.00778561 26.8757 1.37017C23.6877 2.73257 20.9628 5.03969 19.0457 7.99974C18.9585 8.13446 18.8731 8.27034 18.7894 8.40717V1.07325e-05H17.4474C13.9966 1.07325e-05 10.6233 1.05571 7.75414 3.03359C4.88496 5.01138 2.64867 7.82261 1.3281 11.1117ZM16.1053 18V2.83229C13.6591 3.06266 11.2996 3.9201 9.24541 5.33606C6.8176 7.00962 4.92543 9.38841 3.80802 12.1714C2.69061 14.9545 2.39825 18.0168 2.96789 20.9714C3.53754 23.9259 4.94362 26.6397 7.00822 28.7698C9.0729 30.8998 11.7035 32.3504 14.5673 32.9381C17.431 33.5258 20.3994 33.2241 23.097 32.0714C25.6863 30.9649 27.9145 29.1219 29.5238 26.7609C28.3041 27.3582 26.9399 27.6924 25.5 27.6924C20.3115 27.6924 16.1053 23.3528 16.1053 18ZM34.8947 33.1677V18C34.8947 12.6471 30.6885 8.30769 25.5 8.30769C24.0601 8.30769 22.6959 8.64185 21.4762 9.23917C23.0855 6.87804 25.3137 5.03504 27.903 3.92863C30.6006 2.77583 33.569 2.47422 36.4327 3.0619C39.2965 3.64958 41.9271 5.1002 43.9918 7.23019C46.0564 9.36027 47.4625 12.0741 48.032 15.0286C48.6017 17.9832 48.3094 21.0455 47.192 23.8285C46.0747 26.6116 44.1824 28.9904 41.7546 30.6639C39.7004 32.0799 37.3409 32.9373 34.8947 33.1677ZM25.3657 24.9218C21.7662 24.8489 18.8615 21.852 18.7908 18.1385H21.3296C23.3324 18.6094 24.909 20.2359 25.3657 22.3021V24.9218ZM25.6341 24.9218C29.2337 24.8489 32.1385 21.852 32.2092 18.1385H29.6704C27.6674 18.6094 26.0907 20.2361 25.6341 22.3026V24.9218ZM32.2092 17.8615C32.1385 14.148 29.2337 11.1511 25.6341 11.0783V13.6974C26.0907 15.7638 27.6672 17.3904 29.67 17.8615H32.2092ZM25.3657 11.0783C21.7663 11.1511 18.8615 14.148 18.7908 17.8615H21.33C23.3326 17.3904 24.9092 15.764 25.3657 13.6979V11.0783Z" fill="#8046FD"/>
</svg>
