<svg width="217" height="36" viewBox="0 0 217 36" fill="none" xmlns="http://www.w3.org/2000/svg">
<path fill-rule="evenodd" clip-rule="evenodd" d="M1.3281 11.1117C0.00754594 14.4008 -0.337973 18.0199 0.33529 21.5117C1.00847 25.0033 2.67021 28.2106 5.11022 30.7279C7.55024 33.2452 10.6591 34.9596 14.0435 35.6541C17.4281 36.3487 20.9361 35.9921 24.1243 34.6298C27.3123 33.2675 30.0372 30.9603 31.9543 28.0003C32.0054 27.9213 32.0559 27.842 32.1058 27.7623C32.141 27.7061 32.1759 27.6495 32.2106 27.5928V36H33.5526C37.0034 36 40.3767 34.9443 43.2458 32.9663C46.1151 30.9887 48.3513 28.1773 49.6718 24.8882C50.9925 21.5992 51.338 17.9801 50.6647 14.4883C49.9915 10.9967 48.3299 7.7894 45.8898 5.2721C43.4497 2.75471 40.3409 1.04042 36.9565 0.34591C33.5719 -0.348679 30.0639 0.00778561 26.8757 1.37017C23.6877 2.73257 20.9628 5.03969 19.0457 7.99974C18.9585 8.13446 18.8731 8.27034 18.7894 8.40717V1.07325e-05H17.4474C13.9966 1.07325e-05 10.6233 1.05571 7.75414 3.03359C4.88496 5.01138 2.64867 7.82261 1.3281 11.1117ZM16.1053 18V2.83229C13.6591 3.06266 11.2996 3.9201 9.24541 5.33606C6.8176 7.00962 4.92543 9.38841 3.80802 12.1714C2.69061 14.9545 2.39825 18.0168 2.96789 20.9714C3.53754 23.9259 4.94362 26.6397 7.00822 28.7698C9.0729 30.8998 11.7035 32.3504 14.5673 32.9381C17.431 33.5258 20.3994 33.2241 23.097 32.0714C25.6863 30.9649 27.9145 29.1219 29.5238 26.7609C28.3041 27.3582 26.9399 27.6924 25.5 27.6924C20.3115 27.6924 16.1053 23.3528 16.1053 18ZM34.8947 33.1677V18C34.8947 12.6471 30.6885 8.30769 25.5 8.30769C24.0601 8.30769 22.6959 8.64185 21.4762 9.23917C23.0855 6.87804 25.3137 5.03504 27.903 3.92863C30.6006 2.77583 33.569 2.47422 36.4327 3.0619C39.2965 3.64958 41.9271 5.1002 43.9918 7.23019C46.0564 9.36027 47.4625 12.0741 48.032 15.0286C48.6017 17.9832 48.3094 21.0455 47.192 23.8285C46.0747 26.6116 44.1824 28.9904 41.7546 30.6639C39.7004 32.0799 37.3409 32.9373 34.8947 33.1677ZM25.3657 24.9218C21.7662 24.8489 18.8615 21.852 18.7908 18.1385H21.3296C23.3324 18.6094 24.909 20.2359 25.3657 22.3021V24.9218ZM25.6341 24.9218C29.2337 24.8489 32.1385 21.852 32.2092 18.1385H29.6704C27.6674 18.6094 26.0907 20.2361 25.6341 22.3026V24.9218ZM32.2092 17.8615C32.1385 14.148 29.2337 11.1511 25.6341 11.0783V13.6974C26.0907 15.7638 27.6672 17.3904 29.67 17.8615H32.2092ZM25.3657 11.0783C21.7663 11.1511 18.8615 14.148 18.7908 17.8615H21.33C23.3326 17.3904 24.9092 15.764 25.3657 13.6979V11.0783Z" fill="#8046FD"/>
<path d="M67.7713 25H64.4759L69.4972 10.4545H73.4602L78.4744 25H75.179L71.5355 13.7784H71.4219L67.7713 25ZM67.5653 19.2827H75.3494V21.6832H67.5653V19.2827ZM87.7837 14.6378C87.7269 14.0649 87.4831 13.6198 87.0522 13.3026C86.6213 12.9853 86.0366 12.8267 85.2979 12.8267C84.796 12.8267 84.3723 12.8977 84.0266 13.0398C83.681 13.1771 83.4158 13.3688 83.2312 13.6151C83.0513 13.8613 82.9613 14.1406 82.9613 14.4531C82.9518 14.7135 83.0063 14.9408 83.1246 15.1349C83.2478 15.3291 83.4158 15.4972 83.6289 15.6392C83.842 15.7765 84.0882 15.8973 84.3675 16.0014C84.6469 16.1009 84.9452 16.1861 85.2624 16.2571L86.5692 16.5696C87.2037 16.7116 87.7861 16.901 88.3164 17.1378C88.8467 17.3745 89.306 17.6657 89.6942 18.0114C90.0825 18.357 90.3832 18.7642 90.5962 19.233C90.814 19.7017 90.9253 20.2391 90.93 20.8452C90.9253 21.7353 90.698 22.5071 90.2482 23.1605C89.8031 23.8092 89.1592 24.3134 88.3164 24.6733C87.4783 25.0284 86.4674 25.206 85.2837 25.206C84.1095 25.206 83.0868 25.026 82.2156 24.6662C81.3491 24.3063 80.672 23.7737 80.1843 23.0682C79.7013 22.358 79.448 21.4796 79.4244 20.4332H82.4002C82.4334 20.9209 82.573 21.3281 82.8192 21.6548C83.0702 21.9768 83.404 22.2206 83.8207 22.3864C84.2421 22.5473 84.7179 22.6278 85.2482 22.6278C85.7691 22.6278 86.2212 22.5521 86.6048 22.4006C86.993 22.2491 87.2937 22.0384 87.5067 21.7685C87.7198 21.4986 87.8263 21.1884 87.8263 20.8381C87.8263 20.5114 87.7293 20.2367 87.5352 20.0142C87.3458 19.7917 87.0664 19.6023 86.6971 19.446C86.3325 19.2898 85.8851 19.1477 85.3548 19.0199L83.771 18.6222C82.5446 18.3239 81.5763 17.8575 80.8661 17.223C80.1559 16.5885 79.8031 15.7339 79.8079 14.6591C79.8031 13.7784 80.0375 13.009 80.511 12.3509C80.9892 11.6927 81.645 11.179 82.4783 10.8097C83.3117 10.4403 84.2586 10.2557 85.3192 10.2557C86.3988 10.2557 87.341 10.4403 88.146 10.8097C88.9556 11.179 89.5853 11.6927 90.0352 12.3509C90.485 13.009 90.717 13.7713 90.7312 14.6378H87.7837ZM100.889 14.6378C100.832 14.0649 100.589 13.6198 100.158 13.3026C99.7268 12.9853 99.142 12.8267 98.4034 12.8267C97.9015 12.8267 97.4777 12.8977 97.1321 13.0398C96.7865 13.1771 96.5213 13.3688 96.3366 13.6151C96.1567 13.8613 96.0668 14.1406 96.0668 14.4531C96.0573 14.7135 96.1117 14.9408 96.2301 15.1349C96.3532 15.3291 96.5213 15.4972 96.7344 15.6392C96.9474 15.7765 97.1937 15.8973 97.473 16.0014C97.7524 16.1009 98.0507 16.1861 98.3679 16.2571L99.6747 16.5696C100.309 16.7116 100.892 16.901 101.422 17.1378C101.952 17.3745 102.411 17.6657 102.8 18.0114C103.188 18.357 103.489 18.7642 103.702 19.233C103.92 19.7017 104.031 20.2391 104.036 20.8452C104.031 21.7353 103.804 22.5071 103.354 23.1605C102.909 23.8092 102.265 24.3134 101.422 24.6733C100.584 25.0284 99.5729 25.206 98.3892 25.206C97.215 25.206 96.1922 25.026 95.321 24.6662C94.4545 24.3063 93.7775 23.7737 93.2898 23.0682C92.8068 22.358 92.5535 21.4796 92.5298 20.4332H95.5057C95.5388 20.9209 95.6785 21.3281 95.9247 21.6548C96.1757 21.9768 96.5095 22.2206 96.9261 22.3864C97.3475 22.5473 97.8234 22.6278 98.3537 22.6278C98.8745 22.6278 99.3267 22.5521 99.7102 22.4006C100.098 22.2491 100.399 22.0384 100.612 21.7685C100.825 21.4986 100.932 21.1884 100.932 20.8381C100.932 20.5114 100.835 20.2367 100.641 20.0142C100.451 19.7917 100.172 19.6023 99.8026 19.446C99.438 19.2898 98.9905 19.1477 98.4602 19.0199L96.8764 18.6222C95.6501 18.3239 94.6818 17.8575 93.9716 17.223C93.2614 16.5885 92.9086 15.7339 92.9134 14.6591C92.9086 13.7784 93.143 13.009 93.6165 12.3509C94.0947 11.6927 94.7505 11.179 95.5838 10.8097C96.4171 10.4403 97.3641 10.2557 98.4247 10.2557C99.5043 10.2557 100.446 10.4403 101.251 10.8097C102.061 11.179 102.691 11.6927 103.141 12.3509C103.59 13.009 103.822 13.7713 103.837 14.6378H100.889ZM106.104 25V10.4545H115.905V12.9901H109.179V16.456H115.401V18.9915H109.179V22.4645H115.934V25H106.104ZM117.796 12.9901V10.4545H129.742V12.9901H125.289V25H122.249V12.9901H117.796ZM131.71 25V10.4545H137.448C138.547 10.4545 139.484 10.651 140.261 11.044C141.042 11.4323 141.636 11.9839 142.043 12.6989C142.455 13.4091 142.661 14.2448 142.661 15.206C142.661 16.1719 142.453 17.0028 142.036 17.6989C141.62 18.3902 141.016 18.9205 140.225 19.2898C139.439 19.6591 138.487 19.8438 137.37 19.8438H133.528V17.3722H136.873C137.46 17.3722 137.948 17.2917 138.336 17.1307C138.724 16.9697 139.013 16.7282 139.202 16.4062C139.397 16.0843 139.494 15.6842 139.494 15.206C139.494 14.723 139.397 14.3158 139.202 13.9844C139.013 13.6529 138.722 13.402 138.329 13.2315C137.941 13.0563 137.451 12.9688 136.859 12.9688H134.785V25H131.71ZM139.565 18.3807L143.18 25H139.785L136.248 18.3807H139.565ZM144.835 25V10.4545H154.636V12.9901H147.91V16.456H154.131V18.9915H147.91V22.4645H154.664V25H144.835ZM169.914 15.5469H166.804C166.747 15.1444 166.631 14.7869 166.456 14.4744C166.28 14.1572 166.056 13.8873 165.781 13.6648C165.506 13.4422 165.189 13.2718 164.829 13.1534C164.474 13.035 164.088 12.9759 163.672 12.9759C162.919 12.9759 162.263 13.1629 161.704 13.5369C161.145 13.9062 160.712 14.446 160.404 15.1562C160.097 15.8617 159.943 16.7187 159.943 17.7273C159.943 18.7642 160.097 19.6354 160.404 20.3409C160.717 21.0464 161.153 21.5791 161.711 21.9389C162.27 22.2988 162.916 22.4787 163.65 22.4787C164.062 22.4787 164.443 22.4242 164.794 22.3153C165.149 22.2064 165.464 22.0478 165.738 21.8395C166.013 21.6264 166.24 21.3684 166.42 21.0653C166.605 20.7623 166.733 20.4167 166.804 20.0284L169.914 20.0426C169.834 20.7102 169.633 21.3542 169.311 21.9744C168.993 22.59 168.565 23.1416 168.025 23.6293C167.49 24.1122 166.851 24.4957 166.108 24.7798C165.369 25.0592 164.533 25.1989 163.6 25.1989C162.303 25.1989 161.143 24.9053 160.12 24.3182C159.102 23.7311 158.297 22.8812 157.706 21.7685C157.118 20.6558 156.825 19.3087 156.825 17.7273C156.825 16.1411 157.123 14.7917 157.72 13.679C158.316 12.5663 159.126 11.7187 160.149 11.1364C161.172 10.5492 162.322 10.2557 163.6 10.2557C164.443 10.2557 165.225 10.3741 165.944 10.6108C166.669 10.8475 167.31 11.1932 167.869 11.6477C168.428 12.0975 168.882 12.6491 169.233 13.3026C169.588 13.956 169.815 14.7041 169.914 15.5469ZM171.566 12.9901V10.4545H183.512V12.9901H179.059V25H176.019V12.9901H171.566ZM188.554 10.4545V25H185.479V10.4545H188.554ZM191.085 25V10.4545H200.715V12.9901H194.16V16.456H200.076V18.9915H194.16V25H191.085ZM201.931 10.4545H205.376L208.693 16.7188H208.835L212.152 10.4545H215.596L210.291 19.858V25H207.237V19.858L201.931 10.4545Z" fill="white"/>
</svg>
